<?xml version="1.0" encoding="UTF-8"?>
<svg xmlns="http://www.w3.org/2000/svg" xmlns:xlink="http://www.w3.org/1999/xlink" viewBox="0 0 144 144" width="144px" height="144px">
<defs>
<radialGradient id="radial0" gradientUnits="userSpaceOnUse" cx="69.445" cy="150.625427" fx="69.445" fy="150.625427" r="160.888077" gradientTransform="matrix(1.088372,0,0,1.088372,-21.599999,-21.599999)">
<stop offset="0" style="stop-color:rgb(100%,86.666667%,33.333334%);stop-opacity:1;"/>
<stop offset="0.328" style="stop-color:rgb(100%,32.941177%,24.705882%);stop-opacity:1;"/>
<stop offset="0.348" style="stop-color:rgb(98.823529%,32.156864%,27.058825%);stop-opacity:1;"/>
<stop offset="0.504" style="stop-color:rgb(90.196079%,27.843139%,44.313726%);stop-opacity:1;"/>
<stop offset="0.643" style="stop-color:rgb(83.529413%,24.313726%,56.862748%);stop-opacity:1;"/>
<stop offset="0.761" style="stop-color:rgb(80.000001%,22.352941%,64.313728%);stop-opacity:1;"/>
<stop offset="0.841" style="stop-color:rgb(78.431374%,21.568628%,67.058825%);stop-opacity:1;"/>
</radialGradient>
<radialGradient id="radial1" gradientUnits="userSpaceOnUse" cx="42.23317" cy="19.852751" fx="42.23317" fy="19.852751" r="106.829918" gradientTransform="matrix(1.088372,0,0,1.088372,-21.599999,-21.599999)">
<stop offset="0" style="stop-color:rgb(25.490198%,40.784314%,78.823531%);stop-opacity:1;"/>
<stop offset="0.999" style="stop-color:rgb(25.490198%,40.784314%,78.823531%);stop-opacity:0;"/>
</radialGradient>
</defs>
<g id="surface39642523">
<path style=" stroke:none;fill-rule:nonzero;fill:url(#radial0);" d="M 111.066406 142.160156 L 33.066406 142.234375 C 15.90625 142.25 1.855469 128.226562 1.835938 111.066406 L 1.761719 33.066406 C 1.746094 15.90625 15.769531 1.855469 32.929688 1.835938 L 110.929688 1.761719 C 128.089844 1.746094 142.140625 15.769531 142.160156 32.929688 L 142.234375 110.929688 C 142.253906 128.09375 128.226562 142.144531 111.066406 142.160156 Z M 111.066406 142.160156 "/>
<path style=" stroke:none;fill-rule:nonzero;fill:url(#radial1);" d="M 111.066406 142.160156 L 33.066406 142.234375 C 15.90625 142.25 1.855469 128.226562 1.835938 111.066406 L 1.761719 33.066406 C 1.746094 15.90625 15.769531 1.855469 32.929688 1.835938 L 110.929688 1.761719 C 128.089844 1.746094 142.140625 15.769531 142.160156 32.929688 L 142.234375 110.929688 C 142.253906 128.09375 128.226562 142.144531 111.066406 142.160156 Z M 111.066406 142.160156 "/>
<path style=" stroke:none;fill-rule:nonzero;fill:rgb(100%,100%,100%);fill-opacity:1;" d="M 72 99.300781 C 56.949219 99.300781 44.699219 87.054688 44.699219 72 C 44.699219 56.945312 56.949219 44.699219 72 44.699219 C 87.050781 44.699219 99.300781 56.945312 99.300781 72 C 99.300781 87.054688 87.050781 99.300781 72 99.300781 Z M 72 52.5 C 61.246094 52.5 52.5 61.246094 52.5 72 C 52.5 82.753906 61.246094 91.5 72 91.5 C 82.753906 91.5 91.5 82.753906 91.5 72 C 91.5 61.246094 82.753906 52.5 72 52.5 Z M 72 52.5 "/>
<path style=" stroke:none;fill-rule:nonzero;fill:rgb(100%,100%,100%);fill-opacity:1;" d="M 107.101562 42.75 C 107.101562 45.980469 104.480469 48.601562 101.25 48.601562 C 98.019531 48.601562 95.398438 45.980469 95.398438 42.75 C 95.398438 39.519531 98.019531 36.898438 101.25 36.898438 C 104.480469 36.898438 107.101562 39.519531 107.101562 42.75 Z M 107.101562 42.75 "/>
<path style=" stroke:none;fill-rule:nonzero;fill:rgb(100%,100%,100%);fill-opacity:1;" d="M 95.398438 122.699219 L 48.601562 122.699219 C 33.550781 122.699219 21.300781 110.453125 21.300781 95.398438 L 21.300781 48.601562 C 21.300781 33.546875 33.550781 21.300781 48.601562 21.300781 L 95.398438 21.300781 C 110.449219 21.300781 122.699219 33.546875 122.699219 48.601562 L 122.699219 95.398438 C 122.699219 110.453125 110.449219 122.699219 95.398438 122.699219 Z M 48.601562 29.101562 C 37.847656 29.101562 29.101562 37.847656 29.101562 48.601562 L 29.101562 95.398438 C 29.101562 106.152344 37.847656 114.898438 48.601562 114.898438 L 95.398438 114.898438 C 106.152344 114.898438 114.898438 106.152344 114.898438 95.398438 L 114.898438 48.601562 C 114.898438 37.847656 106.152344 29.101562 95.398438 29.101562 Z M 48.601562 29.101562 "/>
</g>
</svg>
